<?xml version="1.0" encoding="UTF-8"?>
<svg version="1.1" xmlns="http://www.w3.org/2000/svg" width="64" height="64" viewBox="0 0 512 512">
    <!-- Transparent background -->
    <path d="M0 0 C168.96 0 337.92 0 512 0 C512 168.96 512 337.92 512 512 C343.04 512 174.08 512 0 512 C0 343.04 0 174.08 0 0 Z" fill="none" transform="translate(0,0)"/>
    <path d="M0 0 C0.72316406 -0.03996094 1.44632812 -0.07992187 2.19140625 -0.12109375 C6.01802995 0.83057093 7.19136894 2.17110561 9.4375 5.4375 C10.18352582 9.80226782 10.13488548 14.08207275 10.0625 18.5 C10.08183594 19.68400391 10.10117188 20.86800781 10.12109375 22.08789062 C10.11464844 23.22548828 10.10820312 24.36308594 10.1015625 25.53515625 C10.09592285 26.57164307 10.0902832 27.60812988 10.08447266 28.67602539 C9.21050627 32.40637777 7.59904357 33.39357767 4.4375 35.4375 C1.98658015 36.54954264 -0.4390636 37.57551589 -2.9375 38.5625 C-30.61117522 50.11475072 -53.20834684 73.285805 -65.5625 100.4375 C-78.82506512 133.59689852 -79.59726709 169.38095866 -65.5625 202.4375 C-60.61473988 213.48231225 -54.42180396 223.25545604 -46.5625 232.4375 C-45.87631592 233.24912598 -45.87631592 233.24912598 -45.17626953 234.07714844 C-29.259385 252.70968406 -7.87559707 267.48159292 16.4375 272.4375 C18.29761719 272.85902344 18.29761719 272.85902344 20.1953125 273.2890625 C55.00374394 280.8133093 89.70677356 274.79932861 119.625 255.625 C149.35843537 234.96893635 166.40897812 206.74726517 173.25 171.44140625 C175.57348471 156.70986778 175.47786924 141.03901853 172.4375 126.4375 C172.18033203 124.94863281 172.18033203 124.94863281 171.91796875 123.4296875 C165.99358439 92.92866353 145.5214875 65.97004493 120.4375 48.4375 C112.89197692 43.42037165 105.16499642 39.95879298 96.6875 36.89453125 C93.32191227 35.38568002 91.72930474 34.2866057 89.4375 31.4375 C88.61214143 27.16490011 88.83480509 22.84341445 88.875 18.5 C88.85115234 17.31986328 88.82730469 16.13972656 88.80273438 14.92382812 C88.81717511 6.41823712 88.81717511 6.41823712 91.53515625 2.12109375 C96.13608612 -0.54781712 99.59032787 -0.03392553 104.62109375 1.25 C137.07574025 13.09419272 165.52743029 34.25602665 184.4375 63.4375 C184.86611328 64.09685547 185.29472656 64.75621094 185.73632812 65.43554688 C209.03474528 101.85885477 215.7345714 145.36736253 206.99951172 187.55273438 C200.81302084 215.53238968 185.82229911 241.62069302 166.4375 262.4375 C165.59316406 263.35273438 164.74882812 264.26796875 163.87890625 265.2109375 C136.4474232 293.7685077 95.9362576 311.67427027 56.35546875 312.640625 C10.37084785 313.17937408 -30.77898811 298.24635031 -64.00732422 265.96826172 C-82.40625187 247.85817124 -95.29411508 226.12086871 -103.5625 201.6875 C-103.92424316 200.62426514 -104.28598633 199.56103027 -104.65869141 198.46557617 C-109.40060847 183.71657119 -111.06839271 169.3848682 -110.95361328 153.9440918 C-110.93748744 151.37299778 -110.95359154 148.80346974 -110.97265625 146.23242188 C-110.98574973 135.60134382 -109.90572834 125.81220768 -107.5625 115.4375 C-107.27866445 114.08897773 -106.99652743 112.74009687 -106.71606445 111.39086914 C-101.49587771 86.97925267 -88.44598017 65.37177057 -72.5625 46.4375 C-71.840625 45.57382813 -71.11875 44.71015625 -70.375 43.8203125 C-66.12453677 38.88911101 -61.60265433 34.55072939 -56.5625 30.4375 C-56.06476074 30.02741699 -55.56702148 29.61733398 -55.05419922 29.19482422 C-40.81294075 17.5130352 -19.29083343 0.5866622 0 0 Z" fill="#359B4C" transform="translate(206.5625,114.5625)"/>
    <path d="M0 0 C9.24 0 18.48 0 28 0 C32.93096294 10.46008313 37.41230198 21.05886342 41.8125 31.75 C42.55888811 33.55789363 43.30555747 35.36567117 44.05249023 37.17333984 C45.60047711 40.92014855 47.14726476 44.66744917 48.69335938 48.41503906 C50.8979696 53.75615997 53.1114138 59.09357916 55.328125 64.4296875 C62.23825562 81.06517248 69.1315811 97.7075268 75.98043823 114.36834717 C76.69822889 116.11406619 77.41658666 117.85955214 78.13552856 119.60479736 C79.12466939 122.00664423 80.11151642 124.40941974 81.09765625 126.8125 C81.54159729 127.88895279 81.54159729 127.88895279 81.99450684 128.9871521 C84 133.88546367 84 133.88546367 84 135 C73.44 135 62.88 135 52 135 C46.30769231 122.47692308 46.30769231 122.47692308 44.1875 116.9375 C43.76855469 115.85339844 43.34960938 114.76929688 42.91796875 113.65234375 C42 111 42 111 42 109 C23.52 109 5.04 109 -14 109 C-14.99 111.97 -15.98 114.94 -17 118 C-18.02683512 120.84039963 -19.06349081 123.67286497 -20.125 126.5 C-20.38925781 127.21414063 -20.65351563 127.92828125 -20.92578125 128.6640625 C-22.87884688 133.87884688 -22.87884688 133.87884688 -24 135 C-26.29151417 135.08790975 -28.58572524 135.10694038 -30.87890625 135.09765625 C-31.90889992 135.09553383 -31.90889992 135.09553383 -32.95970154 135.09336853 C-35.16067801 135.08775479 -37.36155409 135.07520007 -39.5625 135.0625 C-41.05143083 135.05748676 -42.54036324 135.05292355 -44.02929688 135.04882812 C-47.68623075 135.03778093 -51.34310558 135.02050713 -55 135 C-54.36616468 131.23622954 -53.2864339 127.98218155 -51.8046875 124.46875 C-51.34433105 123.36837402 -50.88397461 122.26799805 -50.40966797 121.13427734 C-49.90322754 119.93496582 -49.39678711 118.7356543 -48.875 117.5 C-47.76811138 114.85790535 -46.66512558 112.21418865 -45.5625 109.5703125 C-45.27253143 108.875961 -44.98256287 108.1816095 -44.68380737 107.46621704 C-41.66325853 100.219942 -38.72939677 92.93930665 -35.79528809 85.65771484 C-29.84334543 70.89430755 -23.77452466 56.18218795 -17.625 41.5 C-17.25840271 40.62414246 -16.89180542 39.74828491 -16.51409912 38.84588623 C-11.07867456 25.8672238 -5.55468979 12.92807486 0 0 Z" fill="#359C4D" transform="translate(242,211)"/>
    <path d="M0 0 C5.25450749 3.42552862 9.36136582 8.20987125 10.79826736 14.43948555 C11.01039753 16.99329223 11.03909867 19.48301341 10.99462891 22.04516602 C11.00193024 22.9992334 11.00923157 23.95330078 11.01675415 24.9362793 C11.03285615 28.06373172 11.00584429 31.18907546 10.9765625 34.31640625 C10.97552403 36.50398253 10.97656433 38.69156069 10.97958374 40.87913513 C10.97940479 45.45283044 10.95864776 50.02581705 10.92236328 54.59936523 C10.87696258 60.44913425 10.87591053 66.29787027 10.88939857 72.14776707 C10.89609467 76.66124077 10.88278759 81.17448078 10.86314011 85.68791008 C10.85546629 87.84437778 10.85312712 90.00087154 10.8563118 92.15735054 C10.85705711 95.17514341 10.83170637 98.19163243 10.79931641 101.20922852 C10.80427124 102.09205002 10.80922607 102.97487152 10.81433105 103.88444519 C10.70449974 110.32561875 9.27124628 115.70942926 4.8737278 120.58992863 C-0.27905919 125.22302361 -5.69234254 126.55689818 -12.4453125 126.375 C-17.84360848 125.64302766 -22.07633377 123.15072951 -25.625 119.0625 C-28.3393343 115.23049863 -29.99370142 112.57573558 -30.02415466 107.83892822 C-30.03412979 107.00357544 -30.04410492 106.16822266 -30.05438232 105.30755615 C-30.055047 104.39943176 -30.05571167 103.49130737 -30.05639648 102.55566406 C-30.06472 101.59257324 -30.07304352 100.62948242 -30.08161926 99.63720703 C-30.10572939 96.45080529 -30.11449336 93.26460831 -30.12109375 90.078125 C-30.13006039 87.86098163 -30.13918224 85.64383889 -30.14845276 83.42669678 C-30.16494883 78.77631154 -30.17264382 74.12599834 -30.17553711 69.47558594 C-30.18091674 63.52591497 -30.21857751 57.57692427 -30.26428127 51.62744522 C-30.29407389 47.04626007 -30.30126118 42.46523814 -30.30226326 37.88396454 C-30.30646234 35.69116862 -30.31888399 33.49837206 -30.33978081 31.30567169 C-30.36673547 28.23224921 -30.3618566 25.1603957 -30.34936523 22.08691406 C-30.36419952 21.1868866 -30.37903381 20.28685913 -30.39431763 19.35955811 C-30.32237655 13.12135007 -28.80938002 8.85529741 -24.75 4.0625 C-17.51453673 -2.32468038 -8.87660142 -4.37812036 0 0 Z" fill="#349B4B" transform="translate(265.75,68.9375)"/>
    <path d="M0 0 C3.29468908 1.64734454 3.92713005 5.2613835 5.22265625 8.54296875 C5.52819931 9.30418533 5.83374237 10.06540192 6.14854431 10.84968567 C6.79485729 12.46493627 7.43771024 14.08157492 8.07739258 15.69946289 C9.0530492 18.16363058 10.04223552 20.62203419 11.03320312 23.08007812 C11.65967934 24.65071278 12.28535597 26.22166665 12.91015625 27.79296875 C13.20495377 28.52444626 13.49975128 29.25592377 13.80348206 30.00956726 C14.07724167 30.7066127 14.35100128 31.40365814 14.63305664 32.12182617 C14.87351212 32.72725754 15.11396759 33.3326889 15.36170959 33.95646667 C16.17749223 36.56825432 16.55016712 39.30100271 17 42 C6.11 42 -4.78 42 -16 42 C-11.13918184 27.80129432 -5.64816489 13.9025305 0 0 Z" fill="#FAFCFB" transform="translate(255,251)"/>
    <path d="M0 0 C0.66 0.99 1.32 1.98 2 3 C0.35 4.32 -1.3 5.64 -3 7 C-3 3 -3 3 -1.5 1.25 C-1.005 0.8375 -0.51 0.425 0 0 Z" fill="#3D9E52" transform="translate(243,71)"/>
</svg>